<mxfile host="app.diagrams.net" modified="2024-05-15T22:26:40.433Z" agent="Mozilla/5.0 (X11; Linux x86_64) AppleWebKit/537.36 (KHTML, like Gecko) Chrome/124.0.0.0 Safari/537.36" etag="9hS78Bv5QVZsNDwG7NTk" version="24.4.2" type="device">
  <diagram id="C5RBs43oDa-KdzZeNtuy" name="Page-1">
    <mxGraphModel dx="1288" dy="606" grid="1" gridSize="10" guides="1" tooltips="1" connect="1" arrows="1" fold="1" page="1" pageScale="1" pageWidth="827" pageHeight="1169" math="0" shadow="0">
      <root>
        <mxCell id="WIyWlLk6GJQsqaUBKTNV-0" />
        <mxCell id="WIyWlLk6GJQsqaUBKTNV-1" parent="WIyWlLk6GJQsqaUBKTNV-0" />
        <mxCell id="50UMj6tpaxoDjEbPM6p0-1" style="edgeStyle=orthogonalEdgeStyle;orthogonalLoop=1;jettySize=auto;html=1;strokeColor=#23445D;" parent="WIyWlLk6GJQsqaUBKTNV-1" source="50UMj6tpaxoDjEbPM6p0-0" target="50UMj6tpaxoDjEbPM6p0-2" edge="1">
          <mxGeometry relative="1" as="geometry">
            <mxPoint x="289" y="220" as="targetPoint" />
          </mxGeometry>
        </mxCell>
        <mxCell id="50UMj6tpaxoDjEbPM6p0-0" value="Start" style="ellipse;whiteSpace=wrap;html=1;labelBackgroundColor=none;fillColor=#182E3E;strokeColor=#FFFFFF;fontColor=#FFFFFF;rounded=0;" parent="WIyWlLk6GJQsqaUBKTNV-1" vertex="1">
          <mxGeometry x="254" y="140" width="70" height="40" as="geometry" />
        </mxCell>
        <mxCell id="7ltZNvAy2yr2m92RPC9r-1" value="" style="edgeStyle=orthogonalEdgeStyle;rounded=0;orthogonalLoop=1;jettySize=auto;html=1;" edge="1" parent="WIyWlLk6GJQsqaUBKTNV-1" source="50UMj6tpaxoDjEbPM6p0-2" target="7ltZNvAy2yr2m92RPC9r-0">
          <mxGeometry relative="1" as="geometry" />
        </mxCell>
        <mxCell id="50UMj6tpaxoDjEbPM6p0-2" value="inputArray" style="shape=parallelogram;perimeter=parallelogramPerimeter;whiteSpace=wrap;html=1;fixedSize=1;strokeColor=#FFFFFF;fontColor=#FFFFFF;fillColor=#182E3E;" parent="WIyWlLk6GJQsqaUBKTNV-1" vertex="1">
          <mxGeometry x="227.75" y="200" width="122.5" height="40" as="geometry" />
        </mxCell>
        <mxCell id="7ltZNvAy2yr2m92RPC9r-4" value="" style="edgeStyle=orthogonalEdgeStyle;rounded=0;orthogonalLoop=1;jettySize=auto;html=1;" edge="1" parent="WIyWlLk6GJQsqaUBKTNV-1" source="7ltZNvAy2yr2m92RPC9r-0" target="7ltZNvAy2yr2m92RPC9r-3">
          <mxGeometry relative="1" as="geometry" />
        </mxCell>
        <mxCell id="7ltZNvAy2yr2m92RPC9r-0" value="&lt;div style=&quot;&quot;&gt;&lt;span style=&quot;white-space: pre;&quot;&gt;&#x9;&lt;/span&gt;i = 0&lt;/div&gt;&lt;div style=&quot;&quot;&gt;&lt;span style=&quot;white-space: pre;&quot;&gt;&#x9;&lt;/span&gt;j = 0&lt;br&gt;&lt;/div&gt;&lt;div&gt;&lt;span style=&quot;white-space: pre;&quot;&gt;&#x9;&lt;/span&gt;arraySize = inputArray.Length&lt;/div&gt;&lt;div&gt;&lt;span style=&quot;white-space: pre;&quot;&gt;&#x9;&lt;/span&gt;&lt;span style=&quot;background-color: initial;&quot;&gt;maxLineLength = 3&lt;/span&gt;&lt;/div&gt;&lt;div&gt;&lt;span style=&quot;background-color: initial;&quot;&gt;&lt;span style=&quot;white-space: pre;&quot;&gt;&#x9;&lt;/span&gt;resultArray = []&lt;br&gt;&lt;/span&gt;&lt;/div&gt;" style="whiteSpace=wrap;html=1;fillColor=#182E3E;strokeColor=#FFFFFF;fontColor=#FFFFFF;align=left;" vertex="1" parent="WIyWlLk6GJQsqaUBKTNV-1">
          <mxGeometry x="185.25" y="260" width="207.5" height="80" as="geometry" />
        </mxCell>
        <mxCell id="7ltZNvAy2yr2m92RPC9r-8" style="edgeStyle=orthogonalEdgeStyle;rounded=0;orthogonalLoop=1;jettySize=auto;html=1;" edge="1" parent="WIyWlLk6GJQsqaUBKTNV-1" source="7ltZNvAy2yr2m92RPC9r-3" target="7ltZNvAy2yr2m92RPC9r-7">
          <mxGeometry relative="1" as="geometry" />
        </mxCell>
        <mxCell id="7ltZNvAy2yr2m92RPC9r-12" value="No" style="edgeLabel;html=1;align=center;verticalAlign=middle;resizable=0;points=[];" vertex="1" connectable="0" parent="7ltZNvAy2yr2m92RPC9r-8">
          <mxGeometry x="-0.2343" y="-4" relative="1" as="geometry">
            <mxPoint y="-4" as="offset" />
          </mxGeometry>
        </mxCell>
        <mxCell id="7ltZNvAy2yr2m92RPC9r-15" value="" style="edgeStyle=orthogonalEdgeStyle;rounded=0;orthogonalLoop=1;jettySize=auto;html=1;" edge="1" parent="WIyWlLk6GJQsqaUBKTNV-1" source="7ltZNvAy2yr2m92RPC9r-3" target="7ltZNvAy2yr2m92RPC9r-14">
          <mxGeometry relative="1" as="geometry" />
        </mxCell>
        <mxCell id="7ltZNvAy2yr2m92RPC9r-16" value="Yes" style="edgeLabel;html=1;align=center;verticalAlign=middle;resizable=0;points=[];" vertex="1" connectable="0" parent="7ltZNvAy2yr2m92RPC9r-15">
          <mxGeometry x="-0.1998" relative="1" as="geometry">
            <mxPoint as="offset" />
          </mxGeometry>
        </mxCell>
        <mxCell id="7ltZNvAy2yr2m92RPC9r-3" value="i &amp;lt; arraySize" style="rhombus;whiteSpace=wrap;html=1;align=center;fillColor=#182E3E;strokeColor=#FFFFFF;fontColor=#FFFFFF;" vertex="1" parent="WIyWlLk6GJQsqaUBKTNV-1">
          <mxGeometry x="224.31" y="370" width="129.38" height="70" as="geometry" />
        </mxCell>
        <mxCell id="7ltZNvAy2yr2m92RPC9r-11" style="edgeStyle=orthogonalEdgeStyle;rounded=0;orthogonalLoop=1;jettySize=auto;html=1;entryX=0;entryY=0.5;entryDx=0;entryDy=0;" edge="1" parent="WIyWlLk6GJQsqaUBKTNV-1" source="7ltZNvAy2yr2m92RPC9r-7" target="7ltZNvAy2yr2m92RPC9r-30">
          <mxGeometry relative="1" as="geometry">
            <mxPoint x="593.9999999999968" y="404.9999999999999" as="targetPoint" />
          </mxGeometry>
        </mxCell>
        <mxCell id="7ltZNvAy2yr2m92RPC9r-7" value="&lt;font style=&quot;font-size: 14px;&quot;&gt;&lt;b&gt;resultArray&lt;/b&gt;&lt;/font&gt;" style="shape=document;whiteSpace=wrap;html=1;boundedLbl=1;size=0.46153846153846156;" vertex="1" parent="WIyWlLk6GJQsqaUBKTNV-1">
          <mxGeometry x="434.63" y="372.5" width="130" height="65" as="geometry" />
        </mxCell>
        <mxCell id="7ltZNvAy2yr2m92RPC9r-19" value="" style="edgeStyle=orthogonalEdgeStyle;rounded=0;orthogonalLoop=1;jettySize=auto;html=1;" edge="1" parent="WIyWlLk6GJQsqaUBKTNV-1" source="7ltZNvAy2yr2m92RPC9r-14" target="7ltZNvAy2yr2m92RPC9r-18">
          <mxGeometry relative="1" as="geometry" />
        </mxCell>
        <mxCell id="7ltZNvAy2yr2m92RPC9r-20" value="Yes" style="edgeLabel;html=1;align=center;verticalAlign=middle;resizable=0;points=[];" vertex="1" connectable="0" parent="7ltZNvAy2yr2m92RPC9r-19">
          <mxGeometry x="-0.1869" y="1" relative="1" as="geometry">
            <mxPoint as="offset" />
          </mxGeometry>
        </mxCell>
        <mxCell id="7ltZNvAy2yr2m92RPC9r-25" style="edgeStyle=orthogonalEdgeStyle;rounded=0;orthogonalLoop=1;jettySize=auto;html=1;exitX=1;exitY=0.5;exitDx=0;exitDy=0;entryX=1;entryY=0.5;entryDx=0;entryDy=0;" edge="1" parent="WIyWlLk6GJQsqaUBKTNV-1" source="7ltZNvAy2yr2m92RPC9r-14" target="7ltZNvAy2yr2m92RPC9r-22">
          <mxGeometry relative="1" as="geometry">
            <mxPoint x="453.3799999999999" y="525" as="sourcePoint" />
            <mxPoint x="334" y="730" as="targetPoint" />
            <Array as="points">
              <mxPoint x="474" y="525" />
              <mxPoint x="474" y="725" />
            </Array>
          </mxGeometry>
        </mxCell>
        <mxCell id="7ltZNvAy2yr2m92RPC9r-26" value="No" style="edgeLabel;html=1;align=center;verticalAlign=middle;resizable=0;points=[];" vertex="1" connectable="0" parent="7ltZNvAy2yr2m92RPC9r-25">
          <mxGeometry x="-0.8935" y="1" relative="1" as="geometry">
            <mxPoint y="1" as="offset" />
          </mxGeometry>
        </mxCell>
        <mxCell id="7ltZNvAy2yr2m92RPC9r-14" value="inputArray[ i ].Length &amp;lt;= maxLineLength" style="rhombus;whiteSpace=wrap;html=1;fillColor=#182E3E;strokeColor=#FFFFFF;fontColor=#FFFFFF;" vertex="1" parent="WIyWlLk6GJQsqaUBKTNV-1">
          <mxGeometry x="143.38" y="480" width="291.25" height="90" as="geometry" />
        </mxCell>
        <mxCell id="7ltZNvAy2yr2m92RPC9r-23" value="" style="edgeStyle=orthogonalEdgeStyle;rounded=0;orthogonalLoop=1;jettySize=auto;html=1;" edge="1" parent="WIyWlLk6GJQsqaUBKTNV-1" source="7ltZNvAy2yr2m92RPC9r-18" target="7ltZNvAy2yr2m92RPC9r-22">
          <mxGeometry relative="1" as="geometry" />
        </mxCell>
        <mxCell id="7ltZNvAy2yr2m92RPC9r-18" value="&lt;span style=&quot;text-align: left;&quot;&gt;resultArray[ j ] =&amp;nbsp;&lt;/span&gt;inputArray[ i ]&lt;div&gt;j = j + 1&lt;/div&gt;" style="whiteSpace=wrap;html=1;fillColor=#182E3E;strokeColor=#FFFFFF;fontColor=#FFFFFF;" vertex="1" parent="WIyWlLk6GJQsqaUBKTNV-1">
          <mxGeometry x="196.5" y="610" width="185" height="60" as="geometry" />
        </mxCell>
        <mxCell id="7ltZNvAy2yr2m92RPC9r-27" style="edgeStyle=orthogonalEdgeStyle;rounded=0;orthogonalLoop=1;jettySize=auto;html=1;entryX=0;entryY=0.5;entryDx=0;entryDy=0;" edge="1" parent="WIyWlLk6GJQsqaUBKTNV-1" source="7ltZNvAy2yr2m92RPC9r-22" target="7ltZNvAy2yr2m92RPC9r-3">
          <mxGeometry relative="1" as="geometry">
            <Array as="points">
              <mxPoint x="124" y="725" />
              <mxPoint x="124" y="405" />
            </Array>
          </mxGeometry>
        </mxCell>
        <mxCell id="7ltZNvAy2yr2m92RPC9r-22" value="i = i + 1" style="whiteSpace=wrap;html=1;fillColor=#182E3E;strokeColor=#FFFFFF;fontColor=#FFFFFF;" vertex="1" parent="WIyWlLk6GJQsqaUBKTNV-1">
          <mxGeometry x="246.5" y="710" width="85" height="30" as="geometry" />
        </mxCell>
        <mxCell id="7ltZNvAy2yr2m92RPC9r-30" value="Finish" style="ellipse;whiteSpace=wrap;html=1;labelBackgroundColor=none;fillColor=#182E3E;strokeColor=#FFFFFF;fontColor=#FFFFFF;rounded=0;" vertex="1" parent="WIyWlLk6GJQsqaUBKTNV-1">
          <mxGeometry x="600" y="385" width="70" height="40" as="geometry" />
        </mxCell>
      </root>
    </mxGraphModel>
  </diagram>
</mxfile>
